<?xml version="1.0" encoding="utf-8"?>
<!-- Generator: Adobe Illustrator 16.0.0, SVG Export Plug-In . SVG Version: 6.00 Build 0)  -->
<!DOCTYPE svg PUBLIC "-//W3C//DTD SVG 1.1//EN" "http://www.w3.org/Graphics/SVG/1.1/DTD/svg11.dtd">
<svg version="1.1" id="Layer_1" xmlns="http://www.w3.org/2000/svg" xmlns:xlink="http://www.w3.org/1999/xlink" x="0px" y="0px"
	 width="883px" height="1080px" viewBox="0 0 883 1080" enable-background="new 0 0 883 1080" xml:space="preserve">
<path fill="#D4EAF9" d="M-1037,801.524l235.312,116.975c26.244,12.994,34.378,40.584,18.171,61.623l-79.013,102.563H-1037V801.524z"
	/>
<g>
	
		<rect x="734.572" y="778.381" transform="matrix(0.2483 0.9687 -0.9687 0.2483 1315.9061 -123.1375)" fill="#5793CE" width="5.44" height="15.809"/>
	
		<rect x="726.761" y="786" transform="matrix(0.2483 0.9687 -0.9687 0.2483 1317.4146 -109.843)" fill="#5793CE" width="5.44" height="15.809"/>
	
		<rect x="718.95" y="793.622" transform="matrix(0.2482 0.9687 -0.9687 0.2482 1319.0051 -96.4961)" fill="#5793CE" width="5.442" height="15.806"/>
	
		<rect x="711.138" y="801.242" transform="matrix(0.2482 0.9687 -0.9687 0.2482 1320.514 -83.2001)" fill="#5793CE" width="5.442" height="15.805"/>
</g>
<g>
	<path fill="#C4D9E8" d="M406.804,311.561l-143.709,84.315c-36.434-11.178-82.856-7.725-113.489,10.251
		c-37.271,21.866-37.025,56.896,0.549,78.242c8.436,4.79,18.035,8.482,28.271,11.086c7.232,1.838,14.781,3.13,22.465,3.876
		c29.89,2.908,61.789-2.422,84.783-15.912c27.854-16.341,34.743-40.032,20.771-59.871l19.831-11.635l-0.563-12.587l20.869-0.147
		l-0.526-11.788l20.869-0.148l-0.526-11.788l20.869-0.148l-0.526-11.788l20.869-0.147l-0.526-11.788l22.281-0.156l6.798-3.988
		l7.502-30.956L406.804,311.561z M204.575,472.89c-9.702,5.692-25.497,5.803-35.28,0.248s-9.848-14.676-0.143-20.368
		c9.702-5.692,25.498-5.804,35.277-0.245C214.213,458.077,214.277,467.198,204.575,472.89z"/>
	<path fill="#C4D9E8" d="M485.421,844.922L291.605,733.484c-13.047-7.535-11.412-20.693,3.656-29.393l188.107-108.604
		c15.068-8.7,37.861-9.644,50.911-2.11l193.813,111.436c13.05,7.533,11.412,20.693-3.653,29.393L536.33,842.811
		C521.262,851.51,498.471,852.453,485.421,844.922z"/>
	<g>
		<g>
			<path fill="#5793CE" d="M712.644,592.268l-33.51-19.346l123.545-71.327c5.834-3.37,5.834-8.85-0.003-12.22l-126.207-72.867
				c-5.837-3.37-15.33-3.37-21.164,0L531.76,487.835l-33.506-19.346l123.541-71.327c24.312-14.035,63.867-14.035,88.181,0
				l126.21,72.867c24.311,14.038,24.309,36.876,0,50.911L712.644,592.268z"/>
		</g>
		<g>
			<path fill="#D4EAF9" d="M766.71,600.787c0-17.915-10.891-38.726-24.325-46.481L518.546,425.072
				c-6.015-3.473-11.512-3.718-15.759-1.345l-0.011-0.009l-267.26,155.305l258.448,194.748l263.3-152.82
				c0.813-0.371,1.601-0.799,2.328-1.35l0.002-0.004l0,0C763.989,616.268,766.71,609.734,766.71,600.787z"/>
			<path fill="#1F3F7A" d="M493.965,773.771l263.3-152.82c0.813-0.371,1.601-0.803,2.328-1.35l0.002-0.004l0,0
				c4.395-3.33,7.115-9.863,7.115-18.814c0-8.549-2.5-17.746-6.555-25.884L460.013,748.188L493.965,773.771z"/>
			<path fill="#5793CE" d="M477.134,773.082L253.295,643.848c-13.434-7.756-24.325-28.566-24.325-46.479l0,0
				c0-17.914,10.892-26.146,24.325-18.391l223.839,129.234c13.434,7.756,24.325,28.566,24.325,46.479l0,0
				C501.459,772.605,490.567,780.838,477.134,773.082z"/>
		</g>
		<path fill="#FFFFFF" d="M443.604,729.496l-26.909-15.521c-2.679-1.549-4.849-5.695-4.849-9.266l0,0c0-3.57,2.17-5.213,4.849-3.664
			l26.909,15.521c2.68,1.547,4.849,5.695,4.849,9.266l0,0C448.453,729.402,446.284,731.043,443.604,729.496z"/>
	</g>
	<g>
		<g>
			<polygon fill="#3B6DAB" points="241.535,274.417 287.522,300.539 334.449,273.008 334.324,261.031 333.923,261.265 
				333.887,260.418 354.756,260.273 354.634,248.48 375.099,248.338 374.977,236.547 395.441,236.402 395.319,224.609 
				415.782,224.467 415.659,212.676 437.539,212.523 444.337,208.532 451.84,177.579 451.714,165.602 448.094,177.078 
				414.975,172.653 			"/>
			<g>
				<g>
					<g>
						<g>
							<g>
								<polygon fill="#D4EAF9" points="287.397,288.562 334.324,261.031 333.762,248.444 354.631,248.296 354.104,236.508 
									374.974,236.36 374.447,224.573 395.316,224.425 394.79,212.637 415.659,212.489 415.133,200.701 437.414,200.545 
									444.212,196.558 451.714,165.602 414.852,160.678 241.409,262.44 								"/>
							</g>
						</g>
						<g>
							<g>
								<path fill="#3B6DAB" d="M318.646,270.229c-4.723-6.708-11.815-12.982-21.312-18.377c-6.692-3.798-14.139-6.878-22.031-9.298
									l-33.894,19.886l45.988,26.122L318.646,270.229z"/>
							</g>
						</g>
						<g>
							<g>
								<polygon fill="#5793CE" points="450.455,170.795 451.714,165.602 445.529,164.775 298.985,250.755 306.704,255.138 								
									"/>
							</g>
						</g>
						<g>
							<g>
								<polygon fill="#D3D1D0" points="130.38,312.196 129.873,295.172 135.322,306.671 								"/>
							</g>
						</g>
						<path fill="#3B6DAB" d="M158.709,350.5c37.576,21.343,98.248,20.92,135.52-0.949c18.686-10.961,27.938-25.236,27.787-39.433
							l0.002,0.008l-0.521-18.037l-3.063,3.414c-4.324-8.895-12.559-17.266-24.754-24.191
							c-37.575-21.345-98.247-20.922-135.52,0.947C120.891,294.125,121.137,329.155,158.709,350.5z M212.988,318.654
							c9.779,5.559,9.844,14.679,0.142,20.371c-9.702,5.692-25.497,5.803-35.28,0.245c-9.78-5.556-9.848-14.676-0.143-20.368
							C187.41,313.209,203.205,313.098,212.988,318.654z"/>
						<g>
							<g>
								<path fill="#F3F3F3" d="M158.203,333.483c37.574,21.346,98.247,20.922,135.519-0.947
									c37.269-21.866,37.023-56.896-0.552-78.242c-37.572-21.343-98.247-20.919-135.516,0.947
									C120.383,277.11,120.629,312.14,158.203,333.483z M212.479,301.639c9.783,5.556,9.847,14.676,0.145,20.368
									c-9.705,5.695-25.5,5.803-35.281,0.248c-9.782-5.556-9.846-14.676-0.145-20.368
									C186.902,296.192,202.698,296.083,212.479,301.639z"/>
							</g>
						</g>
						<path fill="#5793CE" d="M201.768,342.804c-8.266,1.295-17.41,0.164-23.918-3.531c-7.016-3.988-9.004-9.8-6.004-14.871
							l-17.023-13.495c0,0-8.898-10.042-17.706-19.992c-13.704,20.034-6.491,43.629,21.593,59.586
							c12.393,7.038,26.275,11.036,42.023,13.354L201.768,342.804z"/>
						<g>
							<g>
								<path fill="#D4EAF9" d="M158.203,333.483c8.435,4.792,18.033,8.488,28.271,11.089c7.232,1.835,14.782,3.127,22.466,3.876
									c29.889,2.908,61.788-2.422,84.782-15.912c37.269-21.866,37.023-56.896-0.552-78.242
									c-37.572-21.343-98.247-20.919-135.516,0.947C120.383,277.11,120.629,312.14,158.203,333.483z M212.479,301.639
									c9.783,5.556,9.847,14.676,0.145,20.368c-9.705,5.695-25.5,5.803-35.281,0.248c-9.782-5.556-9.846-14.676-0.145-20.368
									C186.902,296.192,202.698,296.083,212.479,301.639z"/>
							</g>
						</g>
						<g>
							<g>
								<g>
									<path fill="#3B6DAB" d="M140.449,294.716c1.83-10.905,9.914-21.56,24.309-30.006
										c33.162-19.454,87.142-19.833,120.573-0.844c16.611,9.438,25.005,21.883,25.194,34.403
										c2.384-14.216-5.879-28.861-24.799-39.608c-33.429-18.99-87.409-18.611-120.57,0.844
										C148.476,269.291,140.26,282.042,140.449,294.716z"/>
								</g>
							</g>
						</g>
					</g>
					<g>
						<g>
							<g>
								<g>
									<path fill="#3B6DAB" d="M117.847,449.581c-6.751,0-13.095-1.609-18.804-4.851c-13.463-7.642-20.956-22.997-21.092-43.24
										c-0.264-36.92,25.433-82.163,57.283-100.851c17.449-10.24,34.473-11.671,47.937-4.021
										c5.737,3.261,10.427,7.951,13.94,13.941c4.67,7.959,7.076,17.817,7.154,29.301c0.262,36.921-25.439,82.166-57.289,100.852
										C136.924,446.607,127.014,449.581,117.847,449.581z M164.34,305.337c-6.764,0-14.344,2.348-22.25,6.987
										c-28.129,16.502-50.828,56.461-50.594,89.074c0.103,15.197,5.158,26.4,14.235,31.552c9.074,5.149,21.284,3.762,34.39-3.924
										c28.132-16.502,50.828-56.461,50.6-89.075c-0.062-8.947-1.891-16.742-5.294-22.537l0,0
										c-2.294-3.915-5.308-6.948-8.948-9.02C172.881,306.351,168.787,305.337,164.34,305.337z"/>
								</g>
							</g>
						</g>
					</g>
				</g>
			</g>
		</g>
		<path fill="#D4EAF9" d="M182.032,335.301l26.748,6.556l3.843-19.85c-9.705,5.695-25.5,5.803-35.281,0.248L182.032,335.301z"/>
		<path fill="#D4EAF9" d="M158.203,333.483c8.435,4.792,18.033,8.488,28.271,11.089c7.232,1.835,14.782,3.127,22.466,3.876
			c29.889,2.908,61.788-2.422,84.782-15.912l-108.94-2.445L158.203,333.483z"/>
		<path fill="#3B6DAB" d="M198.454,347.237c0,0-11.579-1.882-23.657-6.099v16.717c5.754,2.008,15.244,4.918,23.37,5.99
			C223.11,367.14,198.454,347.237,198.454,347.237z"/>
	</g>
	<path fill="#5793CE" d="M181.082,343.154c-4.979-1.467-10.403-3.341-15.408-5.684c-14.572-6.823,3.86,18.449,3.86,18.449
		s4.965,1.98,11.548,3.999V343.154z"/>
</g>
<polygon fill="#5793CE" points="454.385,636.816 406.718,667.557 383.518,663.789 440.19,636.393 "/>
<g>
	<g>
		<path fill="#1F3F7A" d="M396.756,792.023c0,0-13.731-6.922-22.161,3.387c-8.433,10.309-20.484,34.648-20.858,51.092
			c-0.373,16.447,13.014,15.336,20.973,11.447c7.956-3.895,31.204-37.617,32.612-44.223c1.407-6.609-1.659-15.545-3.896-17.291
			C401.187,794.686,396.756,792.023,396.756,792.023z"/>
		<path fill="#5793CE" d="M399.75,788.715l0.638,14.225c0.134,3.025-1.387,5.908-4.021,7.4c-2.397,1.361-5.881,2.402-10.591,1.648
			c-10.342-1.662-11.264-4.617-12.005-18.84C373.032,778.928,399.75,788.715,399.75,788.715z"/>
		<g>
			<path fill="#1F3F7A" d="M346.499,764.674c0,0-13.731-6.922-22.161,3.387c-8.433,10.309-20.485,34.648-20.861,51.092
				c-0.37,16.447,13.017,15.336,20.976,11.447c7.956-3.895,31.203-37.617,32.612-44.227c1.406-6.607-1.659-15.541-3.896-17.291
				C350.93,767.336,346.499,764.674,346.499,764.674z"/>
			<path fill="#5793CE" d="M349.493,761.365l0.635,14.225c0.137,3.025-1.384,5.908-4.019,7.4c-2.397,1.361-5.882,2.402-10.591,1.646
				c-10.343-1.664-11.265-4.617-12.005-18.838C322.775,751.578,349.493,761.365,349.493,761.365z"/>
			<path fill="#D4EAF9" d="M472.004,500.217c-4.063-66.117-71.605,9.727-71.605,9.727l-46.228,45.312l-41.624,45.727
				c-8.132,8.93-11.913,20.988-10.34,32.963l16.84,128.221c0.83,6.332,6.249,11.002,12.635,10.951
				c1.804-0.014,3.87-0.178,6.237-0.549c15.021-2.338,13.913-16.621,13.913-16.621l-3.077-119.922l87.42-52.699
				C436.175,583.326,476.067,566.336,472.004,500.217z"/>
		</g>
		<path fill="#5793CE" d="M382.158,613.359l-12.437-4.566c-0.293,0-21.147,20.174-20.967,27.232l9.359,3.002l23.498-22.811
			L382.158,613.359z"/>
		<path fill="#5793CE" d="M454.385,636.816c0,0,51.947-29.66,58.169-42.098c2.434-4.871,6.218-9.961-8.942-17.322l-69.282,49.387
			l3.004,17.006L454.385,636.816z"/>
		<path fill="#D4EAF9" d="M522.262,525.734c-4.334-66.103-71.605,9.727-71.605,9.727l-46.228,45.309l-41.625,45.729
			c-8.129,8.932-11.913,20.99-10.34,32.961l16.84,128.221c0.83,6.332,6.249,11.002,12.635,10.953
			c1.805-0.014,3.871-0.18,6.238-0.547c15.021-2.338,13.912-16.621,13.912-16.621l-3.077-119.926l87.421-52.695
			C486.433,608.844,526.222,586.166,522.262,525.734z"/>
		<path fill="#5793CE" d="M482.303,313.168c51.206,21.229,50.179,51.496,50.179,51.496s-10.028,110.968-6.605,185.08
			c1.432,30.98-164.604,33.346-139.841-49.31c29.195-97.454,18.251-176.35,31.919-188.247
			C431.619,300.288,469.058,307.676,482.303,313.168z"/>
		
			<ellipse transform="matrix(0.9684 0.2495 -0.2495 0.9684 98.1424 -107.5103)" fill="#FBC1B1" cx="473.202" cy="333.419" rx="26.411" ry="19.439"/>
		<path fill="#FFFFFF" d="M476.997,355.806c-3.002,0-6.118-0.384-9.254-1.192c-7.335-1.888-13.709-5.792-17.953-10.994
			c-4.42-5.417-6.029-11.596-4.534-17.396c3.008-11.691,17.998-17.976,33.404-14c7.335,1.888,13.709,5.795,17.95,10.998
			c4.423,5.419,6.032,11.596,4.537,17.396C498.749,349.927,488.752,355.806,476.997,355.806z M469.289,315.908
			c-9.51,0-17.461,4.428-19.293,11.535c-1.095,4.255,0.178,8.903,3.59,13.083c3.586,4.397,9.048,7.716,15.377,9.348
			c12.794,3.284,25.105-1.403,27.444-10.476c1.095-4.255-0.178-8.903-3.59-13.083c-3.587-4.4-9.048-7.72-15.377-9.352
			C474.666,316.25,471.918,315.908,469.289,315.908z"/>
		<path fill="#FBC1B1" d="M461.772,310.859c0,0,0.443,2.052-0.442,18.279c-0.278,5.102,17.58,9.867,22.197,5.25
			s2.771-9.421,3.88-26.782C488.516,290.246,461.772,310.859,461.772,310.859z"/>
		<path fill="#EA9C92" d="M487.407,307.606c0,0-4.397,16.099-26.083,22.273l0.332-14.631L487.407,307.606z"/>
		<circle fill="#FBC1B1" cx="462.983" cy="276.575" r="39.416"/>
		<path fill="#EA9C92" d="M472.035,278.021c0,0-21.702,9.296-36.727,9.404c-15.026,0.105-11.715-12.476-11.715-12.476l44.604-6.447
			L472.035,278.021z"/>
		<path fill="#1F3F7A" d="M430.828,280.472c0,0,18.903-8.026,35.489-4.679c3.896,0.786,7.511,2.872,10.022,5.957
			c0.819,1.008,1.854,1.927,3.033,2.192c2.938,0.668,7.753-11.535,13.47-11.81c5.714-0.279,9.529,3.768,4.843,11.27
			c-4.687,7.505-3.103,15.901-0.947,17.107c2.158,1.203,25.03-16.313,4.854-56.284c-20.176-39.967-71.428-18.441-79.397-10.34
			c0,0-8.398,7.316-15.228,0.805C406.968,234.689,399.313,292.031,430.828,280.472z"/>
		<path fill="#FBC1B1" d="M503.756,445.738v29.984c0,3.437-1.445,6.714-3.984,9.028l-61.597,56.158l6.998,10.705l81.347-58.996
			c3.795-2.754,6.246-6.993,6.736-11.657l5.497-52.293L503.756,445.738z"/>
		<path fill="#5793CE" d="M528.148,349.671c0,0,18.686,28.104,25.647,102.08c0,0-31.922,10.323-50.04,4.464
			C485.642,450.352,528.148,349.671,528.148,349.671z"/>
		<path fill="#3B6DAB" d="M500.345,385.205c0,0-7.315,39.154-7.73,57.556c-0.114,5.06,2.975,9.625,7.73,11.345l0,0V385.205z"/>
	</g>
	<g>
		<path fill="#1F3F7A" d="M484.363,579.898l-13.612-1.797l-87.885-50.739c-2.815-1.629-7.736-1.423-10.992,0.454l-62.273,35.941
			l-8.231-1.086v8.195h0.008c-0.053,1.08,0.56,2.119,1.891,2.885l99.596,57.504c2.818,1.625,7.739,1.422,10.994-0.457l67.818-39.141
			c1.829-1.059,2.743-2.42,2.688-3.698l0,0V579.898z"/>
		<path fill="#3B6DAB" d="M418.333,547.836l-6.244-3.604h-68.647l-33.841,19.525l-8.231-1.086v8.195h0.008
			c-0.053,1.08,0.56,2.119,1.891,2.885l99.596,57.504c1.49,0.859,3.567,1.203,5.676,1.063L418.333,547.836z"/>
		<path fill="#5793CE" d="M305.022,563.152l-3.653-0.48v8.195h0.008c-0.053,1.08,0.56,2.119,1.891,2.885l1.755,1.014V563.152z"/>
		<path fill="#28508A" d="M403.868,631.721c2.671,1.014,6.489,0.793,9.341-0.58v-13.943h-9.341V631.721z"/>
		<path fill="#FFFFFF" d="M402.863,623.064l-99.596-57.502c-2.817-1.627-2.464-4.467,0.788-6.344l67.818-39.144
			c3.256-1.88,8.177-2.083,10.992-0.457l99.598,57.502c2.818,1.627,2.465,4.467-0.788,6.348l-67.818,39.139
			C410.603,624.488,405.682,624.691,402.863,623.064z"/>
		<path fill="#D4EAF9" d="M401.179,614.352l-82.814-47.814c-2.342-1.354-2.047-3.715,0.657-5.277l36.342-20.435
			c2.704-1.563,6.798-1.732,9.14-0.379l82.814,47.812c2.345,1.351,2.049,3.715-0.655,5.277l-36.344,20.436
			C407.614,615.531,403.523,615.701,401.179,614.352z"/>
	</g>
	<path fill="#FBC1B1" d="M375.726,518.187l-1.03,6.873c-0.877,5.854-0.727,11.818,0.448,17.62l1.226,6.057
		c0.693,3.414,3.395,6.064,6.825,6.689l0,0c2.676,0.486,5.208-1.396,5.509-4.1l1.643-14.693c0,0,3.76,4.927,5.575,4.927
		c1.813,0-2.03-14.713-6.135-23.04C385.681,510.195,375.726,518.187,375.726,518.187z"/>
	<path fill="#FBC1B1" d="M409.485,408.967l-10.685,21.15c-2.529,5.002-4.017,10.463-4.375,16.055l-4.64,72.349l-14.061-0.334
		l-6.38-81.249c-0.198-2.506-0.075-5.032,0.362-7.508l7.29-41.201L409.485,408.967z"/>
	<g>
		<path fill="#1F3F7A" d="M399.491,628.588l-8.352-10.902l-87.821-50.846c-2.815-1.629-5.094-5.996-5.088-9.752l0.075-71.901
			l-5.049-6.594l4.745-2.746l0.003,0.005c0.91-0.584,2.116-0.571,3.444,0.198l99.526,57.626c2.815,1.629,5.096,5.995,5.09,9.751
			l-0.083,78.303c-0.003,2.113-0.727,3.584-1.863,4.176l0,0L399.491,628.588z"/>
		<path fill="#3B6DAB" d="M338.76,587.358l-6.24-3.612l-34.25-59.491l0.036-39.068l-5.049-6.594l4.745-2.746l0.003,0.005
			c0.91-0.584,2.116-0.571,3.444,0.198l99.526,57.626c1.489,0.86,2.823,2.489,3.754,4.386L338.76,587.358z"/>
		<path fill="#5793CE" d="M295.496,481.52l-2.239-2.927l4.745-2.746l0.003,0.005c0.91-0.584,2.116-0.571,3.444,0.198l1.755,1.017
			L295.496,481.52z"/>
		<path fill="#28508A" d="M401.88,534.311c2.212,1.81,3.924,5.229,4.158,8.384l-9.725,5.615l-4.662-8.093L401.88,534.311z"/>
		<path fill="#5793CE" d="M396.235,536.419l-99.525-57.623c-2.815-1.629-5.102,0.094-5.107,3.851l-0.084,78.303
			c-0.005,3.757,2.275,8.124,5.091,9.753l99.526,57.625c2.814,1.629,5.102-0.094,5.106-3.852l0.084-78.303
			C401.332,542.418,399.051,538.051,396.235,536.419z"/>
	</g>
	<path fill="#FBC1B1" d="M445.173,551.613l-1.593,3.303c-1.838,3.804-4.727,7.004-8.321,9.221l-9.886,6.096
		c-3.074,1.896-6.971,2.049-10.093,0.233c-0.111-0.067-0.226-0.134-0.337-0.206c-3.141-1.967-3.425-6.478-0.841-9.135l10.332-10.623
		c0,0-5.804,4.449-7.43,2.656c-1.192-1.312,5.628-7.717,10.866-7.926c5.235-0.211,10.304-4.324,10.304-4.324L445.173,551.613z"/>
	<path fill="#5793CE" d="M418.979,312.032c0,0-37.873,41.207-53.15,79.01c0,0,12.949,23.334,44.651,32.49
		C442.179,432.686,418.979,312.032,418.979,312.032z"/>
	<path fill="#3B6DAB" d="M403.348,421.087l6.138-59.299l-14.464,55.557C397.6,418.689,400.391,419.937,403.348,421.087z"/>
	<path fill="#FFFFFF" d="M447.345,303.716l-10.179-2.796c0,0,4.859,7.642,11.953,9.591c7.093,1.949,8.195-4.055,8.195-4.055
		L447.345,303.716z"/>
</g>
<path fill="#D4EAF9" d="M254.191,212.62c-15.717,0-28.505-12.788-28.505-28.505c0-15.717,12.788-28.505,28.505-28.505
	c15.718,0,28.505,12.788,28.505,28.505C282.696,199.833,269.909,212.62,254.191,212.62z M254.191,161.831
	c-12.289,0-22.283,9.995-22.283,22.284c0,12.29,9.994,22.284,22.283,22.284s22.284-9.995,22.284-22.284
	C276.476,171.826,266.48,161.831,254.191,161.831z"/>
<path fill="#5793CE" d="M830.465,418.029c-11.145,0-20.214-9.067-20.214-20.212c0-11.145,9.069-20.215,20.214-20.215
	c11.146,0,20.213,9.07,20.213,20.215C850.678,408.962,841.61,418.029,830.465,418.029z M830.465,383.824
	c-7.716,0-13.993,6.277-13.993,13.993c0,7.714,6.277,13.991,13.993,13.991c7.714,0,13.991-6.277,13.991-13.991
	C844.456,390.101,838.179,383.824,830.465,383.824z"/>
<path fill="#5793CE" d="M167.705,783.213l-13.721-27.904l27.902-13.721l13.721,27.904L167.705,783.213z M162.311,758.145
	l8.229,16.742l16.742-8.23l-8.229-16.742L162.311,758.145z"/>
<path fill="#5793CE" d="M572.711,350.693l-13.721-27.906l27.903-13.721l13.721,27.906L572.711,350.693z M567.316,325.622
	l8.229,16.745l16.742-8.229l-8.229-16.745L567.316,325.622z"/>
<rect x="119.826" y="615.462" transform="matrix(0.8974 -0.4411 0.4411 0.8974 -261.6326 119.8661)" fill="#5793CE" width="14.292" height="14.294"/>
<g>
	<g>
		<path fill="#FFFFFF" d="M574.877,213.113c0,3.281-2.303,4.612-5.144,2.972c-2.843-1.643-5.146-5.631-5.146-8.911
			c0-3.281,2.304-4.612,5.146-2.972C572.574,205.842,574.877,209.833,574.877,213.113z"/>
		<path fill="#FFFFFF" d="M590.464,222.111c0,3.28-2.306,4.611-5.146,2.971s-5.144-5.631-5.144-8.911
			c0-3.281,2.303-4.609,5.144-2.972C588.158,214.839,590.464,218.83,590.464,222.111z"/>
		<path fill="#FFFFFF" d="M606.047,231.108c0,3.281-2.303,4.612-5.144,2.971c-2.843-1.64-5.146-5.631-5.146-8.911
			s2.303-4.612,5.146-2.969C603.744,223.84,606.047,227.828,606.047,231.108z"/>
	</g>
</g>
<g>
	<g>
		<path fill="#5793CE" d="M105.924,681.637l-74.803-43.186c-1.48-0.855-2.818-0.887-3.866-0.309c0-0.006,0.004-0.049,0.004-0.049
			l-7.256,4.191c0,0,3.214,1.17,5.099,1.863v54.473c0,4.434,2.695,9.58,6.02,11.502l71.497,41.275v6.395l7.329-4.221l-0.039-0.016
			c1.238-0.756,2.033-2.414,2.033-4.797v-55.621C111.941,688.705,109.248,683.559,105.924,681.637z"/>
		<path fill="#D4EAF9" d="M98.534,757.568l-74.802-43.188c-3.324-1.918-6.019-7.068-6.019-11.498v-55.621
			c0-4.434,2.694-6.469,6.019-4.551l74.802,43.188c3.323,1.918,6.02,7.068,6.02,11.498v55.621
			C104.554,757.451,101.857,759.486,98.534,757.568z"/>
	</g>
	<g>
		<path fill="#FFFFFF" d="M48.887,695.213c0,3.219-2.26,4.523-5.047,2.916c-2.787-1.609-5.047-5.525-5.047-8.744
			c0-3.217,2.26-4.523,5.047-2.912C46.627,688.082,48.887,691.994,48.887,695.213z"/>
		<path fill="#FFFFFF" d="M64.177,704.041c0,3.219-2.26,4.523-5.048,2.912c-2.785-1.609-5.045-5.521-5.045-8.74
			c0-3.217,2.26-4.523,5.045-2.914C61.917,696.91,64.177,700.822,64.177,704.041z"/>
		<path fill="#FFFFFF" d="M79.467,712.869c0,3.219-2.26,4.521-5.047,2.912c-2.788-1.609-5.048-5.521-5.048-8.74
			c0-3.221,2.26-4.523,5.048-2.914C77.207,705.736,79.467,709.65,79.467,712.869z"/>
	</g>
</g>
</svg>
