<?xml version="1.0" encoding="iso-8859-1"?>
<!-- Generator: Adobe Illustrator 19.0.0, SVG Export Plug-In . SVG Version: 6.00 Build 0)  -->
<svg version="1.1" id="Capa_1" xmlns="http://www.w3.org/2000/svg" xmlns:xlink="http://www.w3.org/1999/xlink" x="0px" y="0px"
	 viewBox="0 0 512 512" style="enable-background:new 0 0 512 512;" xml:space="preserve">
<path style="fill:#D4F3FF;" d="M63.201,464.866V497h385.6v-32.134c0-80.579-45.637-150.489-112.467-185.323v-47.086
	c66.83-34.833,112.467-104.744,112.467-185.323V15h-385.6v32.134c0,80.579,45.635,150.49,112.467,185.323v47.086
	C108.836,314.377,63.201,384.287,63.201,464.866z"/>
<path style="fill:#96E2FF;" d="M448.801,47.134V15h-192.8v482h192.8v-32.134c0-80.579-45.637-150.489-112.467-185.323v-47.086
	C403.164,197.624,448.801,127.713,448.801,47.134z"/>
<path style="fill:#FFD570;" d="M343.268,266.241c-2.141-1.115-4.52-1.698-6.934-1.698H175.668c-2.414,0-4.792,0.583-6.933,1.698
	C94.387,304.993,48.201,381.102,48.201,464.866V497c0,8.284,6.716,15,15,15h385.6c8.284,0,15-6.716,15-15v-32.134
	C463.801,381.103,417.615,304.994,343.268,266.241z"/>
<path style="fill:#FF932E;" d="M343.268,266.241c-2.141-1.115-4.52-1.698-6.934-1.698H256V512h192.801c8.284,0,15-6.716,15-15
	v-32.134C463.801,381.103,417.615,304.994,343.268,266.241z"/>
<path style="fill:#D4F3FF;" d="M448.801,512h-385.6c-8.284,0-15-6.716-15-15v-32.134c0-80.692,42.859-154.279,112.467-194.211
	v-29.311C91.06,201.414,48.201,127.827,48.201,47.134V15c0-8.284,6.716-15,15-15h385.6c8.284,0,15,6.716,15,15v32.134
	c0,80.692-42.859,154.279-112.467,194.211v29.311c69.606,39.933,112.467,113.52,112.467,194.211V497
	C463.801,505.284,457.085,512,448.801,512z M78.201,482h355.6v-17.134c0-72.541-40.004-138.456-104.4-172.022
	c-4.957-2.584-8.066-7.711-8.066-13.302v-47.086c0-5.591,3.109-10.718,8.067-13.302c64.396-33.564,104.399-99.48,104.399-172.021V30
	h-355.6v17.134c0,72.543,40.004,138.458,104.399,172.021c4.958,2.584,8.067,7.711,8.067,13.302v47.086
	c0,5.591-3.109,10.718-8.067,13.302C118.205,326.41,78.201,392.324,78.201,464.867L78.201,482L78.201,482z"/>
<path style="fill:#96E2FF;" d="M463.801,47.134V15c0-8.284-6.716-15-15-15h-192.8v30h177.8v17.134
	c0,72.542-40.004,138.457-104.399,172.021c-4.958,2.584-8.067,7.711-8.067,13.302v47.086c0,5.591,3.109,10.718,8.066,13.302
	c64.397,33.565,104.4,99.48,104.4,172.022V482h-177.8v30h192.8c8.284,0,15-6.716,15-15v-32.134
	c0-80.691-42.86-154.278-112.467-194.211v-29.311C420.941,201.413,463.801,127.826,463.801,47.134z"/>
<g>
	<path style="fill:#B37150;" d="M497,30H15C6.716,30,0,23.284,0,15S6.716,0,15,0h482c8.284,0,15,6.716,15,15S505.284,30,497,30z"/>
	<path style="fill:#B37150;" d="M497,512H15c-8.284,0-15-6.716-15-15s6.716-15,15-15h482c8.284,0,15,6.716,15,15
		S505.284,512,497,512z"/>
</g>
<g>
	<path style="fill:#843D2D;" d="M512,15c0-8.284-6.716-15-15-15H256.001v30H497C505.284,30,512,23.284,512,15z"/>
	<path style="fill:#843D2D;" d="M497,482H256.001v30H497c8.284,0,15-6.716,15-15S505.284,482,497,482z"/>
</g>
<g>
</g>
<g>
</g>
<g>
</g>
<g>
</g>
<g>
</g>
<g>
</g>
<g>
</g>
<g>
</g>
<g>
</g>
<g>
</g>
<g>
</g>
<g>
</g>
<g>
</g>
<g>
</g>
<g>
</g>
</svg>
