<?xml version="1.0" encoding="utf-8"?>
<!-- Generator: Adobe Illustrator 16.0.0, SVG Export Plug-In . SVG Version: 6.00 Build 0)  -->
<!DOCTYPE svg PUBLIC "-//W3C//DTD SVG 1.1//EN" "http://www.w3.org/Graphics/SVG/1.1/DTD/svg11.dtd">
<svg version="1.1" id="Capa_1" xmlns="http://www.w3.org/2000/svg" xmlns:xlink="http://www.w3.org/1999/xlink" x="0px" y="0px"
	 width="1920px" height="1080px" viewBox="0 0 1920 1080" enable-background="new 0 0 1920 1080" xml:space="preserve">
<path fill="#3B4145" d="M1101.199,132.136l377.023,653.026c13.827,23.947,21.777,51.711,21.777,81.35
	c0,90.008-72.968,162.979-162.979,162.979H960L829.617,540L960,50.511C1020.37,50.511,1073.035,83.36,1101.199,132.136z"/>
<path fill="#525A61" d="M818.801,132.136L441.775,785.162C427.95,809.109,420,836.873,420,866.512
	c0,90.008,72.968,162.979,162.979,162.979H960V50.511C899.63,50.511,846.965,83.36,818.801,132.136z"/>
<path fill="#CC2E2E" d="M1421.77,817.758l-377.021-653.02c-16.993-29.445-48.197-48.024-81.944-48.979l322.458,848.548h51.762
	c53.913,0,97.786-43.87,97.786-97.786C1434.81,849.396,1430.289,832.534,1421.77,817.758z"/>
<path fill="#F75B57" d="M1358.361,817.758c7.366,14.776,11.256,31.639,11.256,48.763c0,53.914-37.831,97.786-84.357,97.786H582.979
	c-53.913,0-97.786-43.872-97.786-97.786c0-17.124,4.521-33.986,13.038-48.763l377.021-653.02
	c17.472-30.249,49.938-49.045,84.748-49.045c0.935,0,1.869,0.021,2.804,0.065c28.966,1.13,55.717,19.666,70.297,48.98
	L1358.361,817.758z"/>
<path fill="#3B4145" d="M960,746.995v108.651c30.01,0,54.327-24.316,54.327-54.326C1014.327,771.312,990.01,746.995,960,746.995z"/>
<path fill="#525A61" d="M960,746.995c5.997,0,10.865,24.316,10.865,54.327c0,30.01-4.868,54.327-10.865,54.327
	c-30.01,0-54.327-24.317-54.327-54.327C905.673,771.312,929.99,746.995,960,746.995z"/>
<path fill="#3B4145" d="M960,279.8v402.013c30.01,0,54.327-24.338,54.327-54.327V334.127C1014.327,304.117,990.01,279.8,960,279.8z"
	/>
<path fill="#525A61" d="M960,279.8c5.997,0,10.865,24.317,10.865,54.327v293.359c0,29.987-4.868,54.327-10.865,54.327
	c-30.01,0-54.327-24.338-54.327-54.327V334.127C905.673,304.117,929.99,279.8,960,279.8z"/>
</svg>
